<svg id="Layer_1" data-name="Layer 1" xmlns="http://www.w3.org/2000/svg" viewBox="0 0 460.92 72.3"><defs><style>.cls-1{fill:#5c67b0;}.cls-2{isolation:isolate;}.cls-3{fill:#fff;}</style></defs><title>logo</title><path class="cls-1" d="M268.6,85h-39a10.29,10.29,0,0,1-10.3-10.3V23.9a10.29,10.29,0,0,1,10.3-10.3h39a10.29,10.29,0,0,1,10.3,10.3V74.7A10.29,10.29,0,0,1,268.6,85Z" transform="translate(-4.8 -13.6)"/><g class="cls-2"><path class="cls-1" d="M33.7,75V85H4.8V15H17.3V75Z" transform="translate(-4.8 -13.6)"/></g><g class="cls-2"><path class="cls-1" d="M74.7,68.7H62.6L60.2,85H48.4L62.8,15H75.3L89.7,85H77.2Zm-2-10.1L68.9,33.5h-.3L64.7,58.6Z" transform="translate(-4.8 -13.6)"/></g><g class="cls-2"><path class="cls-1" d="M139.59,85l-11.9-28.2h-4V85h-12.4V15h20.9c12,0,17.7,8.79,17.7,20,0,10.4-4.5,17.1-10.5,20.1L152.59,85Zm-15.9-38.8h4c8.1,0,10.3-1,10.3-11.2,0-5.6-1.3-10-6.2-10h-8.1Z" transform="translate(-4.8 -13.6)"/></g><g class="cls-2"><path class="cls-3" d="M255.13,35.3V29.8c0-2.1-2.1-5.7-5.7-5.7a6.08,6.08,0,0,0-6.3,5.7V70.2a6.08,6.08,0,0,0,6.3,5.7c4.7,0,7.1-3.3,7.1-9V56.2h-7v-10h18.2V67.8c0,9.5-5.7,18.1-18.3,18.1-13.9,0-18.9-8.6-18.9-15.6V29.8c0-7.1,5-15.71,18.9-15.71,12.6,0,18.3,8.61,18.3,15.71v5.5Z" transform="translate(-4.8 -13.6)"/></g><g class="cls-2"><path class="cls-1" d="M192.83,68.7h-12.1L178.33,85h-11.8l14.4-70h12.5l14.41,70H195.33Zm-2-10.1L187,33.5h-.3l-3.9,25.1Z" transform="translate(-4.8 -13.6)"/></g><g class="cls-2"><path class="cls-1" d="M324.35,85l-11.9-28.2h-4V85h-12.4V15H317c12,0,17.7,8.79,17.7,20,0,10.4-4.5,17.1-10.5,20.1L337.35,85Zm-15.9-38.8h4c8.1,0,10.3-1,10.3-11.2,0-5.6-1.3-10-6.2-10h-8.1Z" transform="translate(-4.8 -13.6)"/></g><g class="cls-2"><path class="cls-1" d="M380.7,68.7H368.6L366.2,85H354.4l14.4-70h12.5l14.4,70H383.2Zm-2-10.1-3.8-25.1h-.3l-3.9,25.1Z" transform="translate(-4.8 -13.6)"/></g><g class="cls-2"><path class="cls-1" d="M465.72,15V85h-12.5V41.9L445,85h-8.6l-8-43.1h-.2V85h-12.5V15h16.9l8,41.9h.2l8.1-41.9Z" transform="translate(-4.8 -13.6)"/></g></svg>