<?xml version="1.0" encoding="utf-8"?>
<!-- Generator: Adobe Illustrator 23.0.1, SVG Export Plug-In . SVG Version: 6.00 Build 0)  -->
<svg version="1.1" id="Layer_1" xmlns="http://www.w3.org/2000/svg" xmlns:xlink="http://www.w3.org/1999/xlink" x="0px" y="0px"
	 viewBox="0 0 470.5 92.6" style="enable-background:new 0 0 470.5 92.6;" xml:space="preserve">
<style type="text/css">
	.st0{fill:#5C67B0;}
	.st1{font-family:'Langdon';}
	.st2{font-size:100px;}
	.st3{fill:#FFFFFF;}
</style>
<g>
	<path class="st0" d="M268.6,85h-39c-5.7,0-10.3-4.6-10.3-10.3V23.9c0-5.7,4.6-10.3,10.3-10.3h39c5.7,0,10.3,4.6,10.3,10.3v50.8
		C278.9,80.4,274.3,85,268.6,85z"/>
	<text transform="matrix(1 0 0 1 6.103516e-05 84.9991)" class="st0 st1 st2">L</text>
	<text transform="matrix(1 0 0 1 45.9016 84.9991)" class="st0 st1 st2">A</text>
	<text transform="matrix(1 0 0 1 106.4917 84.9991)" class="st0 st1 st2">R</text>
	<text transform="matrix(1 0 0 1 226.2294 84.9991)" class="st3 st1 st2">G</text>
	<text transform="matrix(1 0 0 1 164.0328 84.9989)" class="st0 st1 st2">A</text>
	<g>
		<text transform="matrix(1 0 0 1 291.246 84.9989)" class="st0 st1 st2">R</text>
		<text transform="matrix(1 0 0 1 351.9016 84.9989)" class="st0 st1 st2">A</text>
		<text transform="matrix(1 0 0 1 410.9176 84.9989)" class="st0 st1 st2">M</text>
	</g>
</g>
</svg>
